<?xml version="1.0" encoding="UTF-8" standalone="no"?>
<svg
   viewBox="0 0 20 20"
   xml:space="preserve"
   version="1.1"
   id="svg1"
   sodipodi:docname="checkbox_hlt.svg"
   inkscape:version="1.4 (86a8ad7, 2024-10-11)"
   xmlns:inkscape="http://www.inkscape.org/namespaces/inkscape"
   xmlns:sodipodi="http://sodipodi.sourceforge.net/DTD/sodipodi-0.dtd"
   xmlns="http://www.w3.org/2000/svg"
   xmlns:svg="http://www.w3.org/2000/svg"><defs
   id="defs1" /><sodipodi:namedview
   id="namedview1"
   pagecolor="#505050"
   bordercolor="#eeeeee"
   borderopacity="1"
   inkscape:showpageshadow="0"
   inkscape:pageopacity="0"
   inkscape:pagecheckerboard="0"
   inkscape:deskcolor="#505050"
   inkscape:zoom="38.6"
   inkscape:cx="10"
   inkscape:cy="10"
   inkscape:window-width="1920"
   inkscape:window-height="991"
   inkscape:window-x="-9"
   inkscape:window-y="-9"
   inkscape:window-maximized="1"
   inkscape:current-layer="svg1" />
    <path
   d="M 3.8922642,2.3056995 A 1.6004145,1.6004145 0 0 0 2.3056995,3.8922642 V 16.107736 a 1.6004145,1.6004145 0 0 0 1.5865647,1.586565 H 16.107736 a 1.6004145,1.6004145 0 0 0 1.586565,-1.586565 V 3.8907254 A 1.6004145,1.6004145 0 0 0 16.107736,2.3056995 Z M 14.587342,5.3680311 a 1.5388601,1.5388601 0 0 1 1.117212,2.6422228 l -6.15544,6.1554401 a 1.5388601,1.5388601 0 0 1 -2.1759482,0 L 4.2954456,11.087974 A 1.5388601,1.5388601 0 1 1 6.4713938,8.9120259 L 8.4611399,10.901772 13.528606,5.8343057 a 1.5388601,1.5388601 0 0 1 1.057197,-0.4662746 z"
   fill="#ffffff"
   id="path1"
   style="stroke-width:1.53886" />
</svg>
