<?xml version="1.0" encoding="UTF-8"?>
<svg id="Layer_2" data-name="Layer 2" xmlns="http://www.w3.org/2000/svg" viewBox="0 0 160.04 128.04">
  <defs>
    <style>
      .cls-1 {
        stroke: red;
        stroke-width: 6px;
      }

      .cls-1, .cls-2 {
        fill: none;
        stroke-linecap: round;
        stroke-linejoin: round;
      }

      .cls-2 {
        stroke: #cfcfcf;
        stroke-width: 16.04px;
      }
    </style>
  </defs>
  <g id="Dimensions">
    <polygon class="cls-1" points="57.75 47.63 80.49 70.37 103.23 47.63 80.49 70.37 103.23 93.11 80.49 70.37 57.75 93.11 80.49 70.37 57.75 47.63"/>
    <g id="SVGRepo_iconCarrier" data-name="SVGRepo iconCarrier">
      <path class="cls-2" d="M8.02,33.62c0-8.96,0-13.44,1.74-16.86,1.53-3.01,3.98-5.46,6.99-6.99,3.42-1.74,7.9-1.74,16.86-1.74h27.8c3.91,0,5.87,0,7.71.44,1.63.39,3.19,1.04,4.62,1.92,1.61.99,3,2.37,5.77,5.14l1,1c2.77,2.77,4.15,4.15,5.77,5.14,1.43.88,2.99,1.52,4.62,1.92,1.84.44,3.8.44,7.71.44h27.8c8.96,0,13.44,0,16.86,1.74,3.01,1.53,5.46,3.98,6.99,6.99,1.74,3.42,1.74,7.9,1.74,16.86v44.8c0,8.96,0,13.44-1.74,16.86-1.53,3.01-3.98,5.46-6.99,6.99-3.42,1.74-7.9,1.74-16.86,1.74H33.62c-8.96,0-13.44,0-16.86-1.74-3.01-1.53-5.46-3.98-6.99-6.99-1.74-3.42-1.74-7.9-1.74-16.86v-60.8Z"/>
    </g>
  </g>
</svg>