<?xml version="1.0" encoding="UTF-8" standalone="no"?>
<!-- Uploaded to: SVG Repo, www.svgrepo.com, Transformed by: SVG Repo Mixer Tools -->

<svg
   fill="#424242"
   width="20"
   height="15"
   viewBox="0 0 0.9 0.675"
   version="1.1"
   preserveAspectRatio="xMidYMid"
   id="svg8"
   sodipodi:docname="toolbar-handle.svg"
   inkscape:version="1.3.2 (091e20e, 2023-11-25, custom)"
   xmlns:inkscape="http://www.inkscape.org/namespaces/inkscape"
   xmlns:sodipodi="http://sodipodi.sourceforge.net/DTD/sodipodi-0.dtd"
   xmlns="http://www.w3.org/2000/svg"
   xmlns:svg="http://www.w3.org/2000/svg">
  <defs
     id="defs8" />
  <sodipodi:namedview
     id="namedview8"
     pagecolor="#505050"
     bordercolor="#eeeeee"
     borderopacity="1"
     inkscape:showpageshadow="0"
     inkscape:pageopacity="0"
     inkscape:pagecheckerboard="0"
     inkscape:deskcolor="#505050"
     inkscape:zoom="21.948594"
     inkscape:cx="15.604644"
     inkscape:cy="12.984886"
     inkscape:window-width="1920"
     inkscape:window-height="991"
     inkscape:window-x="-9"
     inkscape:window-y="-9"
     inkscape:window-maximized="1"
     inkscape:current-layer="SVGRepo_iconCarrier" />
  <g
     id="SVGRepo_bgCarrier"
     stroke-width="0"
     transform="translate(0.00579897,-0.08698454)" />
  <g
     id="SVGRepo_tracerCarrier"
     stroke-linecap="round"
     stroke-linejoin="round"
     transform="translate(0.00579897,-0.08698454)" />
  <g
     id="SVGRepo_iconCarrier"
     transform="translate(0.00579897,-0.08698454)">
    <title
       id="title1">bar-code-line</title>
    <path
       d="m 0.11964559,0.31173448 a 0.01999651,0.01127638 0 0 0 -0.019997,0.0112765 v 0.20297488 a 0.01999651,0.01127638 0 0 0 0.0399929,0 v -0.2029749 a 0.01999651,0.01127638 0 0 0 -0.019997,-0.0112765 z"
       class="clr-i-outline clr-i-outline-path-2"
       id="path2"
       style="stroke-width:0.0150163" />
    <path
       d="m 0.2007845,0.31172063 a 0.01999651,0.01127638 0 0 0 -0.019997,0.0112765 v 0.20297488 a 0.0199966,0.01127644 0 0 0 0.0399932,0 V 0.32299711 A 0.01999651,0.01127638 0 0 0 0.2007845,0.31172063 Z"
       class="clr-i-outline clr-i-outline-path-3"
       id="path3"
       style="stroke-width:0.0150163" />
    <path
       d="m 0.28192371,0.31173448 a 0.01999651,0.01127638 0 0 0 -0.019997,0.0112765 v 0.20297488 a 0.01999651,0.01127638 0 0 0 0.0399929,0 v -0.2029749 a 0.01999651,0.01127638 0 0 0 -0.019997,-0.0112765 z"
       class="clr-i-outline clr-i-outline-path-4"
       id="path4"
       style="stroke-width:0.0150163" />
    <path
       d="m 0.36306262,0.31173448 a 0.01999651,0.01127638 0 0 0 -0.019997,0.0112765 v 0.20297488 a 0.01999651,0.01127638 0 0 0 0.0399929,0 v -0.2029749 a 0.01999651,0.01127638 0 0 0 -0.019997,-0.0112765 z"
       class="clr-i-outline clr-i-outline-path-5"
       id="path5"
       style="stroke-width:0.0150163" />
    <path
       d="m 0.44420153,0.31172063 a 0.01999651,0.01127638 0 0 0 -0.019997,0.0112765 v 0.20297488 a 0.0199966,0.01127644 0 0 0 0.0399932,0 v -0.2029749 a 0.01999651,0.01127638 0 0 0 -0.0199962,-0.0112765 z"
       class="clr-i-outline clr-i-outline-path-6"
       id="path6"
       style="stroke-width:0.0150163" />
    <path
       d="m 0.52534074,0.31173448 a 0.01999651,0.01127638 0 0 0 -0.019997,0.0112765 v 0.20297488 a 0.01999651,0.01127638 0 0 0 0.0399929,0 v -0.2029749 a 0.01999651,0.01127638 0 0 0 -0.019997,-0.0112765 z"
       class="clr-i-outline clr-i-outline-path-7"
       id="path7"
       style="stroke-width:0.0150163" />
    <path
       d="m 0.03850668,0.31173448 a 0.01999651,0.01127638 0 0 0 -0.019997,0.0112765 v 0.20297488 a 0.01999651,0.01127638 0 0 0 0.0399929,0 v -0.2029749 a 0.01999651,0.01127638 0 0 0 -0.019997,-0.0112765 z"
       class="clr-i-outline clr-i-outline-path-2"
       id="path2-1"
       style="stroke-width:0.0150163" />
    <path
       d="m 0.60647965,0.31173448 a 0.01999651,0.01127638 0 0 0 -0.019997,0.0112765 v 0.20297488 a 0.01999651,0.01127638 0 0 0 0.0399929,0 v -0.2029749 a 0.01999651,0.01127638 0 0 0 -0.0199969,-0.0112765 z"
       class="clr-i-outline clr-i-outline-path-7"
       id="path7-5"
       style="stroke-width:0.0150163" />
    <path
       d="m 0.68761856,0.31173448 a 0.01999651,0.01127638 0 0 0 -0.019997,0.0112765 v 0.20297488 a 0.01999651,0.01127638 0 0 0 0.0399929,0 v -0.2029749 a 0.01999651,0.01127638 0 0 0 -0.0199969,-0.0112765 z"
       class="clr-i-outline clr-i-outline-path-7"
       id="path7-5-6"
       style="stroke-width:0.0150163" />
    <path
       d="m 0.76875747,0.31173448 a 0.01999651,0.01127638 0 0 0 -0.019997,0.0112765 v 0.20297488 a 0.01999651,0.01127638 0 0 0 0.0399929,0 v -0.2029749 a 0.01999651,0.01127638 0 0 0 -0.0199969,-0.0112765 z"
       class="clr-i-outline clr-i-outline-path-7"
       id="path7-5-0"
       style="stroke-width:0.0150163" />
    <path
       d="m 0.84989638,0.31172631 a 0.01999651,0.01127638 0 0 0 -0.019997,0.0112765 v 0.20297488 a 0.01999651,0.01127638 0 0 0 0.039993,0 v -0.2029749 a 0.01999651,0.01127638 0 0 0 -0.019997,-0.0112765 z"
       class="clr-i-outline clr-i-outline-path-7"
       id="path7-5-4"
       style="stroke-width:0.0150163" />
    <rect
       x="-0.005798969"
       y="0.086984538"
       width="36"
       height="36"
       fill-opacity="0"
       id="rect8" />
  </g>
</svg>
