<?xml version="1.0" encoding="UTF-8" standalone="no"?>
<!-- Uploaded to: SVG Repo, www.svgrepo.com, Transformed by: SVG Repo Mixer Tools -->

<svg
   fill="#424242"
   width="15"
   height="30"
   viewBox="0 0 0.675 1.35"
   version="1.1"
   preserveAspectRatio="xMidYMid"
   id="svg8"
   sodipodi:docname="toolbar-handle-vertical.svg"
   inkscape:version="1.3.2 (091e20e, 2023-11-25, custom)"
   xmlns:inkscape="http://www.inkscape.org/namespaces/inkscape"
   xmlns:sodipodi="http://sodipodi.sourceforge.net/DTD/sodipodi-0.dtd"
   xmlns="http://www.w3.org/2000/svg"
   xmlns:svg="http://www.w3.org/2000/svg">
  <defs
     id="defs8" />
  <sodipodi:namedview
     id="namedview8"
     pagecolor="#505050"
     bordercolor="#eeeeee"
     borderopacity="1"
     inkscape:showpageshadow="0"
     inkscape:pageopacity="0"
     inkscape:pagecheckerboard="0"
     inkscape:deskcolor="#505050"
     inkscape:zoom="21.948594"
     inkscape:cx="13.554399"
     inkscape:cy="17.039816"
     inkscape:window-width="1920"
     inkscape:window-height="991"
     inkscape:window-x="-9"
     inkscape:window-y="-9"
     inkscape:window-maximized="1"
     inkscape:current-layer="SVGRepo_iconCarrier" />
  <g
     id="SVGRepo_bgCarrier"
     stroke-width="0"
     transform="translate(0.00579897,-0.08698454)" />
  <g
     id="SVGRepo_tracerCarrier"
     stroke-linecap="round"
     stroke-linejoin="round"
     transform="translate(0.00579897,-0.08698454)" />
  <g
     id="SVGRepo_iconCarrier"
     transform="translate(0.00579897,-0.08698454)">
    <title
       id="title1">bar-code-line</title>
    <path
       d="M 0.47610842,0.23806115 A 0.01444161,0.02560945 0 0 0 0.46166662,0.21245105 H 0.20171754 a 0.01444161,0.02560945 0 0 0 0,0.0512187 h 0.2599491 a 0.01444161,0.02560945 0 0 0 0.0144418,-0.0256101 z"
       class="clr-i-outline clr-i-outline-path-2"
       id="path2"
       style="stroke-width:0.0192313" />
    <path
       d="M 0.47612616,0.34284586 A 0.01444161,0.02560945 0 0 0 0.46168436,0.31723576 H 0.20173529 a 0.01444169,0.02560956 0 0 0 0,0.0512191 h 0.2599491 a 0.01444161,0.02560945 0 0 0 0.0144418,-0.025609 z"
       class="clr-i-outline clr-i-outline-path-3"
       id="path3"
       style="stroke-width:0.0192313" />
    <path
       d="M 0.47610842,0.44763095 A 0.01444161,0.02560945 0 0 0 0.46166662,0.42202085 H 0.20171754 a 0.01444161,0.02560945 0 0 0 0,0.0512187 h 0.2599491 a 0.01444161,0.02560945 0 0 0 0.0144418,-0.0256101 z"
       class="clr-i-outline clr-i-outline-path-4"
       id="path4"
       style="stroke-width:0.0192313" />
    <path
       d="M 0.47610842,0.55241566 A 0.01444161,0.02560945 0 0 0 0.46166662,0.52680556 H 0.20171754 a 0.01444161,0.02560945 0 0 0 0,0.0512187 h 0.2599491 a 0.01444161,0.02560945 0 0 0 0.0144418,-0.0256101 z"
       class="clr-i-outline clr-i-outline-path-5"
       id="path5"
       style="stroke-width:0.0192313" />
    <path
       d="M 0.47612616,0.65720036 A 0.01444161,0.02560945 0 0 0 0.46168436,0.63159026 H 0.20173529 a 0.01444169,0.02560956 0 0 0 0,0.0512191 h 0.2599491 a 0.01444161,0.02560945 0 0 0 0.0144418,-0.025609 z"
       class="clr-i-outline clr-i-outline-path-6"
       id="path6"
       style="stroke-width:0.0192313" />
    <path
       d="M 0.47610842,0.76198545 A 0.01444161,0.02560945 0 0 0 0.46166662,0.73637535 H 0.20171754 a 0.01444161,0.02560945 0 0 0 0,0.0512187 h 0.2599491 a 0.01444161,0.02560945 0 0 0 0.0144418,-0.0256101 z"
       class="clr-i-outline clr-i-outline-path-7"
       id="path7"
       style="stroke-width:0.0192313" />
    <path
       d="M 0.47610842,0.13327645 A 0.01444161,0.02560945 0 0 0 0.46166662,0.10766635 H 0.20171754 a 0.01444161,0.02560945 0 0 0 0,0.0512187 h 0.25994914 a 0.01444161,0.02560945 0 0 0 0.0144418,-0.0256101 z"
       class="clr-i-outline clr-i-outline-path-2"
       id="path2-1"
       style="stroke-width:0.0192313" />
    <path
       d="M 0.47610842,0.86677015 A 0.01444161,0.02560945 0 0 0 0.46166662,0.84116005 H 0.20171754 a 0.01444161,0.02560945 0 0 0 0,0.0512187 h 0.2599491 a 0.01444161,0.02560945 0 0 0 0.0144418,-0.0256099 z"
       class="clr-i-outline clr-i-outline-path-7"
       id="path7-5"
       style="stroke-width:0.0192313" />
    <path
       d="M 0.47610842,0.97155486 A 0.01444161,0.02560945 0 0 0 0.46166662,0.94594476 H 0.20171754 a 0.01444161,0.02560945 0 0 0 0,0.0512187 h 0.2599491 a 0.01444161,0.02560945 0 0 0 0.0144418,-0.0256099 z"
       class="clr-i-outline clr-i-outline-path-7"
       id="path7-5-6"
       style="stroke-width:0.0192313" />
    <path
       d="m 0.47610842,1.0763395 a 0.01444161,0.02560945 0 0 0 -0.0144418,-0.02561 H 0.20171754 a 0.01444161,0.02560945 0 0 0 0,0.051219 h 0.2599491 a 0.01444161,0.02560945 0 0 0 0.0144418,-0.02561 z"
       class="clr-i-outline clr-i-outline-path-7"
       id="path7-5-0"
       style="stroke-width:0.0192313" />
    <path
       d="m 0.47611889,1.1811243 a 0.01444161,0.02560945 0 0 0 -0.0144418,-0.02561 H 0.20172801 a 0.01444164,0.0256095 0 0 0 0,0.051219 h 0.25994914 a 0.01444161,0.02560945 0 0 0 0.0144418,-0.02561 z"
       class="clr-i-outline clr-i-outline-path-7"
       id="path7-5-4"
       style="stroke-width:0.0192313" />
    <path
       d="M 0.47610842,1.2859091 A 0.01444161,0.02560945 0 0 0 0.46166662,1.260299 H 0.20171754 a 0.01444164,0.0256095 0 0 0 0,0.051219 h 0.2599491 a 0.01444161,0.02560945 0 0 0 0.0144418,-0.02561 z"
       class="clr-i-outline clr-i-outline-path-7"
       id="path7-5-5"
       style="stroke-width:0.0192313" />
    <path
       d="m 0.47611889,1.3906937 a 0.01444161,0.02560945 0 0 0 -0.0144418,-0.02561 H 0.20172801 a 0.01444164,0.0256095 0 0 0 0,0.051219 h 0.25994914 a 0.01444161,0.02560945 0 0 0 0.0144418,-0.02561 z"
       class="clr-i-outline clr-i-outline-path-7"
       id="path7-5-6-6"
       style="stroke-width:0.0192313" />
    <rect
       x="-0.005798969"
       y="0.086984538"
       width="36"
       height="36"
       fill-opacity="0"
       id="rect8" />
  </g>
</svg>
