<?xml version="1.0" encoding="UTF-8" standalone="no"?>
<!-- Uploaded to: SVG Repo, www.svgrepo.com, Transformed by: SVG Repo Mixer Tools -->

<svg
   fill="#424242"
   width="800px"
   height="800px"
   viewBox="0 0 36 36"
   version="1.1"
   preserveAspectRatio="xMidYMid meet"
   id="svg8"
   sodipodi:docname="toolbar-handle.svg"
   inkscape:version="1.3.2 (091e20e, 2023-11-25, custom)"
   xmlns:inkscape="http://www.inkscape.org/namespaces/inkscape"
   xmlns:sodipodi="http://sodipodi.sourceforge.net/DTD/sodipodi-0.dtd"
   xmlns="http://www.w3.org/2000/svg"
   xmlns:svg="http://www.w3.org/2000/svg">
  <defs
     id="defs8" />
  <sodipodi:namedview
     id="namedview8"
     pagecolor="#505050"
     bordercolor="#eeeeee"
     borderopacity="1"
     inkscape:showpageshadow="0"
     inkscape:pageopacity="0"
     inkscape:pagecheckerboard="0"
     inkscape:deskcolor="#505050"
     inkscape:zoom="0.97"
     inkscape:cx="403.60825"
     inkscape:cy="338.14433"
     inkscape:window-width="1920"
     inkscape:window-height="991"
     inkscape:window-x="-9"
     inkscape:window-y="-9"
     inkscape:window-maximized="1"
     inkscape:current-layer="SVGRepo_iconCarrier" />
  <g
     id="SVGRepo_bgCarrier"
     stroke-width="0" />
  <g
     id="SVGRepo_tracerCarrier"
     stroke-linecap="round"
     stroke-linejoin="round" />
  <g
     id="SVGRepo_iconCarrier">
    <title
       id="title1">bar-code-line</title>
    <path
       d="m 8.1730486,12.360825 a 1,0.56391753 0 0 0 -1,0.563917 v 10.150516 a 1,0.56391753 0 0 0 2,0 V 12.924742 a 1,0.56391753 0 0 0 -1,-0.563917 z"
       class="clr-i-outline clr-i-outline-path-2"
       id="path2"
       style="stroke-width:0.750944" />
    <path
       d="m 12.103829,12.360825 a 1,0.56391753 0 0 0 -1,0.563917 v 10.150516 a 1,0.56391753 0 0 0 2,0 V 12.924742 a 1,0.56391753 0 0 0 -1,-0.563917 z"
       class="clr-i-outline clr-i-outline-path-3"
       id="path3"
       style="stroke-width:0.750944" />
    <path
       d="m 16.03461,12.360825 a 1,0.56391753 0 0 0 -1,0.563917 v 10.150516 a 1,0.56391753 0 0 0 2,0 V 12.924742 a 1,0.56391753 0 0 0 -1,-0.563917 z"
       class="clr-i-outline clr-i-outline-path-4"
       id="path4"
       style="stroke-width:0.750944" />
    <path
       d="m 19.96539,12.360825 a 1,0.56391753 0 0 0 -1,0.563917 v 10.150516 a 1,0.56391753 0 0 0 2,0 V 12.924742 a 1,0.56391753 0 0 0 -1,-0.563917 z"
       class="clr-i-outline clr-i-outline-path-5"
       id="path5"
       style="stroke-width:0.750944" />
    <path
       d="m 23.896171,12.360825 a 1,0.56391753 0 0 0 -1,0.563917 v 10.150516 a 1,0.56391753 0 0 0 2,0 V 12.924742 a 1,0.56391753 0 0 0 -1,-0.563917 z"
       class="clr-i-outline clr-i-outline-path-6"
       id="path6"
       style="stroke-width:0.750944" />
    <path
       d="m 27.826951,12.360825 a 1,0.56391753 0 0 0 -1,0.563917 v 10.150516 a 1,0.56391753 0 0 0 2,0 V 12.924742 a 1,0.56391753 0 0 0 -1,-0.563917 z"
       class="clr-i-outline clr-i-outline-path-7"
       id="path7"
       style="stroke-width:0.750944" />
    <path
       d="m 4.242268,12.360825 a 1,0.56391753 0 0 0 -1,0.563917 v 10.150516 a 1,0.56391753 0 0 0 2,0 V 12.924742 a 1,0.56391753 0 0 0 -1,-0.563917 z"
       class="clr-i-outline clr-i-outline-path-2"
       id="path2-1"
       style="stroke-width:0.750944" />
    <path
       d="m 31.757732,12.360825 a 1,0.56391753 0 0 0 -1,0.563917 v 10.150516 a 1,0.56391753 0 0 0 2,0 V 12.924742 a 1,0.56391753 0 0 0 -1,-0.563917 z"
       class="clr-i-outline clr-i-outline-path-7"
       id="path7-5"
       style="stroke-width:0.750944" />
    <rect
       x="0"
       y="0"
       width="36"
       height="36"
       fill-opacity="0"
       id="rect8" />
  </g>
</svg>
